<?xml version="1.0" encoding="UTF-8" standalone="no"?>
<!DOCTYPE svg PUBLIC "-//W3C//DTD SVG 1.1//EN" "http://www.w3.org/Graphics/SVG/1.1/DTD/svg11.dtd">
<svg width="100%" height="100%" viewBox="0 0 60 60" version="1.1" xmlns="http://www.w3.org/2000/svg" xmlns:xlink="http://www.w3.org/1999/xlink" xml:space="preserve" xmlns:serif="http://www.serif.com/" style="fill-rule:evenodd;clip-rule:evenodd;stroke-linejoin:round;stroke-miterlimit:2;">
    <g>
        <g transform="matrix(2.22222,0,0,1.36364,0,0)">
            <path d="M13.5,0C20.951,0 27,9.858 27,22C27,34.142 20.951,44 13.5,44C6.049,44 0,34.142 0,22C0,9.858 6.049,0 13.5,0ZM13.5,2.119C20.233,2.119 25.7,11.027 25.7,22C25.7,32.973 20.233,41.881 13.5,41.881C6.767,41.881 1.3,32.973 1.3,22C1.3,11.027 6.767,2.119 13.5,2.119Z" style="fill:rgb(90,181,30);"/>
        </g>
        <g transform="matrix(1,0,0,1,-4,-1.02082)">
            <g transform="matrix(0.706507,-0.707706,0.758257,0.756972,0.977782,23.76)">
                <rect x="24" y="8" width="4" height="28" style="fill:rgb(90,181,30);"/>
            </g>
            <g transform="matrix(1,0,0,1,-15,34.0416)">
                <circle cx="41" cy="16" r="2" style="fill:rgb(90,181,30);"/>
            </g>
            <g transform="matrix(1,0,0,1,-14.9844,-4)">
                <circle cx="41" cy="16" r="2" style="fill:rgb(90,181,30);"/>
            </g>
            <g transform="matrix(-0.707107,-0.707107,0.757614,-0.757614,37.7537,75.0731)">
                <rect x="24" y="8" width="4" height="28" style="fill:rgb(90,181,30);"/>
            </g>
        </g>
    </g>
</svg>
